<svg width="59" height="32" viewBox="0 0 59 32" fill="none" xmlns="http://www.w3.org/2000/svg">
<g clip-path="url(#clip0)">
<path d="M0 6.57895C0 2.94549 2.7977 0 6.24884 0H52.6985C56.1497 0 58.9474 2.94549 58.9474 6.57895V25.4211C58.9474 29.0545 56.1497 32 52.6985 32H6.24884C2.7977 32 0 29.0545 0 25.4211V6.57895Z" fill="#1D54F5"/>
<path d="M10.3159 21.8487V10.1606C10.3159 9.90768 10.3992 9.6949 10.5657 9.5222C10.7322 9.3495 10.9358 9.26315 11.1763 9.26315H14.9417C15.1823 9.26315 15.4105 9.3495 15.6264 9.5222C15.8422 9.6949 15.9872 9.90152 16.0612 10.1421L18.7904 18.2498L21.5197 10.1421C21.5937 9.90152 21.7386 9.6949 21.9545 9.5222C22.1704 9.3495 22.3986 9.26315 22.6391 9.26315H26.4045C26.6451 9.26315 26.8455 9.3495 27.0059 9.5222C27.1724 9.6949 27.2557 9.90768 27.2557 10.1606V21.8487C27.2557 22.1016 27.1693 22.3144 26.9966 22.487C26.8301 22.6536 26.6266 22.7368 26.386 22.7368H24.7207C24.4802 22.7368 24.2736 22.6536 24.1009 22.487C23.9343 22.3144 23.8511 22.1016 23.8511 21.8487V12.677L20.5852 21.9042C20.4989 22.1324 20.3478 22.3298 20.1319 22.4963C19.916 22.6567 19.6878 22.7368 19.4473 22.7368H18.1243C17.8838 22.7368 17.6556 22.6567 17.4397 22.4963C17.23 22.3298 17.0789 22.1324 16.9864 21.9042L13.7298 12.677V21.8487C13.7298 22.1016 13.6434 22.3144 13.4707 22.487C13.3042 22.6536 13.1007 22.7368 12.8601 22.7368H11.1948C10.9543 22.7368 10.7477 22.6536 10.575 22.487C10.4023 22.3144 10.3159 22.1016 10.3159 21.8487Z" fill="white"/>
<path d="M27.9806 12.492C27.9066 12.3871 27.8696 12.2638 27.8696 12.1219C27.8696 11.9801 27.9713 11.8228 28.1749 11.6501L30.4323 9.70723C30.7592 9.41735 31.2125 9.26932 31.7923 9.26315H33.1523C33.4051 9.26315 33.6179 9.3495 33.7906 9.5222C33.9633 9.6949 34.0497 9.90152 34.0497 10.1421V21.8672C34.0497 22.1077 33.9602 22.3144 33.7814 22.487C33.6025 22.6536 33.3928 22.7368 33.1523 22.7368H31.4315C31.1909 22.7368 30.9843 22.6567 30.8116 22.4963C30.6451 22.3298 30.5618 22.1262 30.5618 21.8857V12.7325L29.4979 13.5097C29.3745 13.596 29.2327 13.6238 29.0723 13.5929C28.9119 13.5621 28.7824 13.4912 28.6837 13.3801L27.9806 12.492Z" fill="white"/>
<path d="M34.9989 15.9706C34.9989 14.7309 35.1685 13.6669 35.5077 12.7788C35.8531 11.8906 36.3404 11.1967 36.9695 10.6972C38.166 9.74115 39.7265 9.26315 41.6508 9.26315H42.1903C44.1146 9.26315 45.6751 9.74115 46.8716 10.6972C48.1854 11.7457 48.8422 13.5035 48.8422 15.9706C48.8422 18.45 48.1854 20.2697 46.8716 21.3121C45.6751 22.2619 44.1146 22.7368 42.1903 22.7368H41.6508C39.7265 22.7368 38.166 22.2619 36.9695 21.3121C35.6558 20.2697 34.9989 18.45 34.9989 15.9706ZM41.9746 11.8814C39.6494 11.8814 38.4868 13.2475 38.4868 15.9799C38.4868 18.706 39.6494 20.1279 41.9746 20.1279C44.2999 20.1279 45.3544 18.706 45.3544 15.9799C45.3544 13.2475 44.2999 11.8814 41.9746 11.8814Z" fill="white"/>
</g>
<defs>
<clipPath id="clip0">
<path d="M0 0H58.9474V32H0V0Z" fill="white"/>
</clipPath>
</defs>
</svg>
