<svg width="60" height="60" viewBox="0 0 60 60" fill="none" xmlns="http://www.w3.org/2000/svg">
<path fill-rule="evenodd" clip-rule="evenodd" d="M30 60C46.5685 60 60 46.5685 60 30C60 13.4315 46.5685 0 30 0C13.4315 0 0 13.4315 0 30C0 46.5685 13.4315 60 30 60Z" fill="#E5E5E5"/>
<path d="M25.1687 49L24.8532 48.6883C23.8538 47.7011 23.7486 46.4541 23.6434 45.415C23.5382 44.0642 23.433 43.4926 22.3284 43.1809C21.7498 43.025 21.066 43.077 20.3296 43.1289C18.8042 43.2329 16.5425 43.4407 15.7009 40.5831C15.5431 40.0116 15.5431 39.44 15.5957 38.8685C15.5957 38.5568 15.6483 38.2451 15.5957 38.0372C15.5431 37.7774 15.4379 37.4657 15.3327 37.102C15.1223 36.5825 14.9119 35.959 14.9119 35.2835C14.8593 34.4522 14.9119 33.9327 14.9645 33.517C14.8593 33.4651 14.8067 33.4131 14.7015 33.3612C14.0703 32.9975 13.1761 32.5299 13.0183 30.9712C12.8605 29.7242 13.7547 28.6851 14.4911 27.8538C14.8067 27.4901 15.1223 27.1264 15.2275 26.8666C15.5957 26.0353 15.5957 25.5677 15.5957 24.5806V24.2169C15.4905 17.7223 18.5938 13.0463 24.2746 11.0719C30.2709 9.04563 36.7932 9.92888 41.3167 13.41C45.3669 16.5273 47.3657 21.2034 46.9449 26.6068C46.7345 29.6203 45.7877 32.2701 43.9467 35.2835C43.7363 35.5953 43.5259 35.907 43.3155 36.2707C42.2109 37.9853 41.2115 39.544 41.1063 41.4144C41.1063 41.7261 41.3693 42.7652 41.5797 43.5446C42.1583 45.8826 42.5265 47.3374 42.1057 48.2726L41.7901 48.8961L25.1687 49ZM21.4868 40.9987C21.9602 40.9987 22.4862 41.0507 23.0122 41.2066C25.5369 41.9859 25.6947 43.9602 25.7999 45.3111C25.8525 46.0385 25.9051 46.5581 26.1155 46.9737L40.1596 46.8178C40.0544 46.0385 39.7388 44.7915 39.5284 44.0642C39.1602 42.7133 38.9498 41.882 39.0024 41.3105C39.1076 38.9205 40.37 36.9981 41.5271 35.1796C41.7375 34.8679 41.9479 34.5562 42.1057 34.2444C43.7889 31.4907 44.6305 29.1527 44.8409 26.6068C45.2091 21.9308 43.5259 17.8782 40.0544 15.2284C36.0568 12.163 30.2709 11.3837 24.9584 13.2021C20.1718 14.8128 17.5944 18.8134 17.6996 24.3208V24.6845C17.6996 25.7755 17.7522 26.6068 17.1736 27.8538C16.9106 28.3734 16.5425 28.841 16.1217 29.3086C15.7009 29.7762 15.0697 30.5036 15.1223 30.8153C15.1749 31.2829 15.2275 31.3349 15.7535 31.5947C16.0165 31.7505 16.3847 31.9583 16.7529 32.2701C16.9106 32.426 17.4366 32.8416 17.121 33.6209C17.0158 33.8807 17.0158 34.4003 17.0158 35.1796C17.0158 35.5433 17.1736 36.0109 17.3314 36.4266C17.4892 36.8422 17.647 37.2579 17.6996 37.7255C17.7522 38.1411 17.7522 38.5568 17.6996 38.9724C17.6996 39.3361 17.647 39.8037 17.7522 40.0116C18.0678 41.2066 18.5938 41.2066 20.1718 41.0507C20.5926 41.0507 21.0134 40.9987 21.4868 40.9987Z" fill="#333333"/>
</svg>
