<svg width="329" height="119" viewBox="0 0 329 119" fill="none" xmlns="http://www.w3.org/2000/svg">
<path d="M59.6672 117C58.5738 117 57.5898 116.617 56.7152 115.852C55.9498 114.977 55.5672 113.993 55.5672 112.9V94.86H4.72716C3.63382 94.86 2.64982 94.4773 1.77516 93.712C1.00982 92.8373 0.627156 91.8533 0.627156 90.76V74.196C0.627156 72.556 1.22849 70.916 2.43116 69.276L49.9912 4.988C51.5218 3.12933 53.5445 2.19999 56.0592 2.19999H80.9872C82.1898 2.19999 83.1738 2.58266 83.9392 3.348C84.8138 4.11333 85.2512 5.09733 85.2512 6.3V69.44H99.6832C100.995 69.44 102.034 69.8773 102.799 70.752C103.564 71.5173 103.947 72.4467 103.947 73.54V90.76C103.947 91.8533 103.564 92.8373 102.799 93.712C102.034 94.4773 101.05 94.86 99.8472 94.86H85.2512V112.9C85.2512 114.103 84.8138 115.087 83.9392 115.852C83.1738 116.617 82.1898 117 80.9872 117H59.6672ZM29.8192 70.588H56.2232V33.688L29.8192 70.588ZM164.869 118.64C149.781 118.531 138.301 114.54 130.429 106.668C122.557 98.796 118.239 88.4093 117.473 75.508C117.255 69.604 117.145 64.3013 117.145 59.6C117.145 54.7893 117.255 49.3227 117.473 43.2C117.911 35 119.933 27.7293 123.541 21.388C127.259 14.9373 132.561 9.85333 139.449 6.13599C146.447 2.41866 154.92 0.559994 164.869 0.559994C174.819 0.559994 183.292 2.41866 190.289 6.13599C197.287 9.85333 202.589 14.9373 206.197 21.388C209.915 27.7293 211.992 35 212.429 43.2C212.648 46.2613 212.757 51.728 212.757 59.6C212.757 67.2533 212.648 72.556 212.429 75.508C211.664 88.4093 207.345 98.796 199.473 106.668C191.601 114.54 180.067 118.531 164.869 118.64ZM164.869 93.876C170.008 93.876 173.835 92.236 176.349 88.956C178.864 85.5667 180.231 80.8107 180.449 74.688C180.668 71.5173 180.777 66.3787 180.777 59.272C180.777 52.1653 180.668 47.136 180.449 44.184C180.231 38.28 178.864 33.6333 176.349 30.244C173.835 26.7453 170.008 24.996 164.869 24.996C155.029 24.996 149.836 31.392 149.289 44.184C149.18 47.136 149.125 52.1653 149.125 59.272C149.125 66.3787 149.18 71.5173 149.289 74.688C149.836 87.48 155.029 93.876 164.869 93.876ZM284.687 117C283.593 117 282.609 116.617 281.735 115.852C280.969 114.977 280.587 113.993 280.587 112.9V94.86H229.747C228.653 94.86 227.669 94.4773 226.795 93.712C226.029 92.8373 225.647 91.8533 225.647 90.76V74.196C225.647 72.556 226.248 70.916 227.451 69.276L275.011 4.988C276.541 3.12933 278.564 2.19999 281.079 2.19999H306.007C307.209 2.19999 308.193 2.58266 308.959 3.348C309.833 4.11333 310.271 5.09733 310.271 6.3V69.44H324.703C326.015 69.44 327.053 69.8773 327.819 70.752C328.584 71.5173 328.967 72.4467 328.967 73.54V90.76C328.967 91.8533 328.584 92.8373 327.819 93.712C327.053 94.4773 326.069 94.86 324.867 94.86H310.271V112.9C310.271 114.103 309.833 115.087 308.959 115.852C308.193 116.617 307.209 117 306.007 117H284.687ZM254.839 70.588H281.243V33.688L254.839 70.588Z" fill="#384764"/>
</svg>
